<?xml version="1.0" encoding="UTF-8"?>
<svg xmlns="http://www.w3.org/2000/svg" width="1200" height="800" viewBox="0 0 1200 800" role="img" aria-labelledby="title desc">
  <title id="title">CreateStuff responsive preview illustration</title>
  <desc id="desc">A desktop browser and phone show the same interface at two viewport sizes.</desc>
  <defs>
    <pattern id="grid" width="24" height="24" patternUnits="userSpaceOnUse">
      <path d="M24 0H0V24" fill="none" stroke="#25222E" stroke-width="1"/>
    </pattern>
    <marker id="dim-start" markerWidth="8" markerHeight="8" refX="1" refY="4" orient="auto">
      <path d="M8 0 0 4l8 4z" fill="#7559D9"/>
    </marker>
    <marker id="dim-end" markerWidth="8" markerHeight="8" refX="7" refY="4" orient="auto">
      <path d="M0 0 8 4 0 8z" fill="#7559D9"/>
    </marker>
  </defs>
  <rect width="1200" height="800" fill="#0B0B12"/>
  <rect width="1200" height="800" fill="url(#grid)"/>

  <g font-family="-apple-system, BlinkMacSystemFont, 'Segoe UI', sans-serif">
    <g transform="translate(64 48)">
      <rect width="36" height="36" rx="10" fill="#7559D9"/>
      <path d="M23 10h-8l-4 4h-4v8h4l4 4h8z" fill="#F4F2EE"/>
      <path d="m12 23 10-10" stroke="#0B0B12" stroke-width="3" stroke-linecap="round"/>
      <text x="52" y="25" fill="#F4F2EE" font-size="20" font-weight="700">CreateStuff</text>
      <text x="196" y="25" fill="#777181" font-size="12" font-weight="600" letter-spacing="1.8">RESPONSIVE PREVIEW</text>
    </g>
  </g>

  <g transform="translate(80 116)">
    <rect x="14" y="18" width="984" height="568" rx="22" fill="#211E2A"/>
    <rect width="984" height="568" rx="22" fill="#121119" stroke="#4A4555" stroke-width="2"/>
    <path d="M0 66H984" stroke="#393442"/>
    <circle cx="28" cy="33" r="6" fill="#7559D9"/>
    <circle cx="50" cy="33" r="6" fill="#514C5B"/>
    <circle cx="72" cy="33" r="6" fill="#514C5B"/>
    <rect x="340" y="18" width="304" height="30" rx="10" fill="#0B0B12" stroke="#302C39"/>
    <text x="492" y="38" fill="#777181" font-family="ui-monospace, SFMono-Regular, Menlo, Consolas, monospace" font-size="11" text-anchor="middle">preview.local/app</text>

    <g transform="translate(28 92)">
      <rect width="928" height="440" rx="15" fill="#0B0B12"/>
      <rect width="928" height="74" rx="15" fill="#181620"/>
      <path d="M0 58h928v16H0z" fill="#181620"/>
      <rect x="24" y="20" width="116" height="8" rx="4" fill="#F4F2EE"/>
      <rect x="24" y="40" width="188" height="5" rx="2.5" fill="#605A69"/>
      <rect x="778" y="18" width="58" height="32" rx="10" fill="#7559D9"/>
      <rect x="850" y="18" width="54" height="32" rx="10" fill="#28242F"/>

      <g transform="translate(24 96)">
        <rect width="880" height="40" rx="11" fill="#181620"/>
        <rect x="14" y="12" width="124" height="16" rx="8" fill="#7559D9"/>
        <rect x="154" y="12" width="124" height="16" rx="8" fill="#292631"/>
        <rect x="294" y="12" width="124" height="16" rx="8" fill="#292631"/>
        <rect x="434" y="12" width="124" height="16" rx="8" fill="#292631"/>

        <g transform="translate(0 60)">
          <rect width="280" height="256" rx="14" fill="#181620"/>
          <rect x="18" y="18" width="92" height="8" rx="4" fill="#F4F2EE"/>
          <rect x="18" y="42" width="202" height="6" rx="3" fill="#514C5B"/>
          <rect x="18" y="60" width="164" height="6" rx="3" fill="#514C5B"/>
          <rect x="18" y="94" width="244" height="142" rx="10" fill="#24212D"/>
          <rect x="34" y="112" width="98" height="7" rx="3.5" fill="#6F6978"/>
          <rect x="34" y="136" width="190" height="6" rx="3" fill="#3C3744"/>
          <rect x="34" y="154" width="164" height="6" rx="3" fill="#3C3744"/>
          <rect x="34" y="184" width="86" height="28" rx="8" fill="#7559D9"/>
        </g>
        <g transform="translate(300 60)">
          <rect width="280" height="256" rx="14" fill="#181620"/>
          <rect x="18" y="18" width="106" height="8" rx="4" fill="#F4F2EE"/>
          <rect x="18" y="42" width="188" height="6" rx="3" fill="#514C5B"/>
          <rect x="18" y="94" width="244" height="64" rx="10" fill="#24212D"/>
          <rect x="34" y="112" width="84" height="7" rx="3.5" fill="#6F6978"/>
          <rect x="34" y="132" width="196" height="6" rx="3" fill="#3C3744"/>
          <rect x="18" y="174" width="244" height="62" rx="10" fill="#24212D"/>
          <rect x="34" y="192" width="72" height="7" rx="3.5" fill="#6F6978"/>
          <rect x="34" y="212" width="164" height="6" rx="3" fill="#3C3744"/>
        </g>
        <g transform="translate(600 60)">
          <rect width="280" height="256" rx="14" fill="#181620"/>
          <rect x="18" y="18" width="82" height="8" rx="4" fill="#F4F2EE"/>
          <rect x="18" y="42" width="196" height="6" rx="3" fill="#514C5B"/>
          <rect x="18" y="94" width="244" height="142" rx="10" fill="#24212D"/>
          <g transform="translate(34 112)">
            <rect width="64" height="56" rx="8" fill="#2E2A36"/>
            <rect x="78" width="64" height="56" rx="8" fill="#2E2A36"/>
            <rect x="156" width="64" height="56" rx="8" fill="#7559D9"/>
            <rect y="72" width="220" height="6" rx="3" fill="#6F6978"/>
            <rect y="90" width="174" height="6" rx="3" fill="#3C3744"/>
            <rect y="108" width="196" height="6" rx="3" fill="#3C3744"/>
          </g>
        </g>
      </g>
    </g>
  </g>

  <g transform="translate(786 302)">
    <rect x="14" y="18" width="298" height="452" rx="44" fill="#211E2A"/>
    <rect width="298" height="452" rx="44" fill="#0B0B12" stroke="#7559D9" stroke-width="5"/>
    <rect x="86" y="14" width="126" height="30" rx="15" fill="#0B0B12"/>
    <circle cx="149" cy="29" r="4" fill="#5B5664"/>
    <rect x="12" y="58" width="274" height="382" rx="30" fill="#121119"/>
    <rect x="12" y="58" width="274" height="58" rx="30" fill="#181620"/>
    <path d="M12 98h274v18H12z" fill="#181620"/>
    <rect x="28" y="73" width="72" height="7" rx="3.5" fill="#F4F2EE"/>
    <rect x="28" y="89" width="112" height="5" rx="2.5" fill="#5A5562"/>
    <rect x="220" y="71" width="48" height="25" rx="8" fill="#7559D9"/>
    <g transform="translate(28 134)">
      <rect width="242" height="30" rx="9" fill="#181620"/>
      <rect x="10" y="8" width="78" height="14" rx="7" fill="#7559D9"/>
      <rect x="98" y="8" width="78" height="14" rx="7" fill="#292631"/>
      <rect x="186" y="8" width="46" height="14" rx="7" fill="#292631"/>
      <g transform="translate(0 48)">
        <rect width="242" height="82" rx="12" fill="#181620"/>
        <rect x="14" y="14" width="86" height="7" rx="3.5" fill="#6F6978"/>
        <rect x="14" y="34" width="194" height="6" rx="3" fill="#3C3744"/>
        <rect x="14" y="52" width="152" height="6" rx="3" fill="#3C3744"/>
        <rect x="14" y="68" width="76" height="6" rx="3" fill="#7559D9"/>
      </g>
      <g transform="translate(0 146)">
        <rect width="73" height="128" rx="12" fill="#181620"/>
        <rect y="144" width="73" height="4" fill="#181620"/>
        <rect x="84" width="73" height="128" rx="12" fill="#181620"/>
        <rect x="84" y="144" width="73" height="4" fill="#181620"/>
        <rect x="168" width="74" height="128" rx="12" fill="#181620"/>
        <rect x="168" y="144" width="74" height="4" fill="#181620"/>
        <rect x="12" y="12" width="49" height="6" rx="3" fill="#686272"/>
        <rect x="96" y="12" width="49" height="6" rx="3" fill="#686272"/>
        <rect x="180" y="12" width="49" height="6" rx="3" fill="#686272"/>
        <rect x="12" y="34" width="49" height="66" rx="8" fill="#292631"/>
        <rect x="96" y="34" width="49" height="66" rx="8" fill="#292631"/>
        <rect x="180" y="34" width="50" height="66" rx="8" fill="#7559D9"/>
      </g>
    </g>
    <rect x="104" y="423" width="90" height="4" rx="2" fill="#686272"/>
  </g>

  <g font-family="ui-monospace, SFMono-Regular, Menlo, Consolas, monospace" font-size="12" fill="#A9A4B2">
    <path d="M80 106V92h924v14" fill="none" stroke="#7559D9" stroke-width="2" marker-start="url(#dim-start)" marker-end="url(#dim-end)"/>
    <rect x="493" y="82" width="98" height="22" rx="11" fill="#0B0B12"/>
    <text x="542" y="97" text-anchor="middle">1024 PX</text>
    <path d="M770 762h16V296h-16" fill="none" stroke="#7559D9" stroke-width="2" marker-start="url(#dim-start)" marker-end="url(#dim-end)"/>
    <rect x="727" y="512" width="72" height="22" rx="11" fill="#0B0B12"/>
    <text x="763" y="527" text-anchor="middle">390 PX</text>
  </g>
</svg>
